<svg preserveAspectRatio="none" width="100%" height="100%" overflow="visible" style="display: block;" viewBox="0 0 66.1614 11.5" fill="none" xmlns="http://www.w3.org/2000/svg">
<g id="Frame 16746">
<path id="Cellular Connection" d="M1 7.16667H2C2.55228 7.16667 3 7.61438 3 8.16667V10.1667C3 10.719 2.55228 11.1667 2 11.1667H1C0.447715 11.1667 0 10.719 0 10.1667V8.16667C0 7.61438 0.447715 7.16667 1 7.16667ZM5.66667 5.16667H6.66667C7.21895 5.16667 7.66667 5.61438 7.66667 6.16667V10.1667C7.66667 10.719 7.21895 11.1667 6.66667 11.1667H5.66667C5.11438 11.1667 4.66667 10.719 4.66667 10.1667V6.16667C4.66667 5.61438 5.11438 5.16667 5.66667 5.16667ZM10.3333 2.83333H11.3333C11.8856 2.83333 12.3333 3.28105 12.3333 3.83333V10.1667C12.3333 10.719 11.8856 11.1667 11.3333 11.1667H10.3333C9.78105 11.1667 9.33333 10.719 9.33333 10.1667V3.83333C9.33333 3.28105 9.78105 2.83333 10.3333 2.83333ZM15 0.5H16C16.5523 0.5 17 0.947715 17 1.5V10.1667C17 10.719 16.5523 11.1667 16 11.1667H15C14.4477 11.1667 14 10.719 14 10.1667V1.5C14 0.947715 14.4477 0.5 15 0.5Z" fill="black"/>
<path id="Wifi" d="M29.6671 2.78448C31.8918 2.78457 34.0315 3.63869 35.6438 5.17028C35.7652 5.28852 35.9593 5.28703 36.0789 5.16693L37.2395 3.9966C37.3 3.93569 37.3338 3.85318 37.3333 3.76733C37.3328 3.68148 37.2981 3.59937 37.2368 3.53917C33.0049 -0.513058 26.3286 -0.513058 22.0967 3.53917C22.0354 3.59933 22.0006 3.68141 22 3.76726C21.9994 3.85311 22.0331 3.93565 22.0937 3.9966L23.2546 5.16693C23.3741 5.28721 23.5683 5.28871 23.6897 5.17028C25.3022 3.63859 27.4421 2.78447 29.6671 2.78448ZM29.6671 6.59206C30.8894 6.59199 32.0681 7.04594 32.9742 7.86571C33.0968 7.98206 33.2898 7.97954 33.4093 7.86003L34.5686 6.6897C34.6296 6.62831 34.6635 6.54504 34.6626 6.4585C34.6617 6.37196 34.6262 6.28939 34.5639 6.22926C31.8047 3.66485 27.5318 3.66485 24.7726 6.22926C24.7103 6.28939 24.6747 6.37201 24.6739 6.45857C24.6731 6.54513 24.7071 6.6284 24.7683 6.6897L25.9272 7.86003C26.0467 7.97954 26.2397 7.98206 26.3623 7.86571C27.2677 7.04648 28.4455 6.59257 29.6671 6.59206ZM31.8949 9.38514C31.9569 9.32434 31.9911 9.24068 31.9893 9.1539C31.9875 9.06712 31.95 8.98492 31.8856 8.9267C30.6049 7.84443 28.7293 7.84443 27.4486 8.9267C27.3841 8.98487 27.3465 9.06705 27.3447 9.15383C27.3428 9.2406 27.3769 9.32429 27.4389 9.38514L29.4445 11.4071C29.5033 11.4666 29.5835 11.5 29.6671 11.5C29.7507 11.5 29.8308 11.4666 29.8896 11.4071L31.8949 9.38514Z" fill="black"/>
<g id="Battery">
<path id="Border" opacity="0.35" fill-rule="evenodd" clip-rule="evenodd" d="M60.4148 0.5H45.2518C44.2047 0.5 43.818 0.591351 43.4333 0.797084C43.0872 0.982204 42.8155 1.25386 42.6304 1.60001C42.4247 1.98469 42.3333 2.37142 42.3333 3.41851V7.91482C42.3333 8.96191 42.4247 9.34864 42.6304 9.73333C42.8155 10.0795 43.0872 10.3511 43.4333 10.5363C43.818 10.742 44.2047 10.8333 45.2518 10.8333H60.4148C61.4619 10.8333 61.8486 10.742 62.2333 10.5363C62.5795 10.3511 62.8511 10.0795 63.0362 9.73333C63.242 9.34864 63.3333 8.96191 63.3333 7.91482V3.41851C63.3333 2.37142 63.242 1.98469 63.0362 1.60001C62.8511 1.25386 62.5795 0.982204 62.2333 0.797084C61.8486 0.591351 61.4619 0.5 60.4148 0.5Z" stroke="black"/>
<path id="Cap" opacity="0.4" d="M64.8333 3.66667V7.66667C65.638 7.32789 66.1614 6.5398 66.1614 5.66667C66.1614 4.79353 65.638 4.00544 64.8333 3.66667Z" fill="black"/>
<path id="Capacity" d="M45.5426 2H60.1241C60.7184 2 60.9339 2.06188 61.1512 2.17809C61.3685 2.29429 61.539 2.46482 61.6552 2.6821C61.7714 2.89939 61.8333 3.11491 61.8333 3.70926V7.62408C61.8333 8.21842 61.7714 8.43395 61.6552 8.65123C61.539 8.86851 61.3685 9.03904 61.1512 9.15524C60.9339 9.27145 60.7184 9.33333 60.1241 9.33333H45.5426C44.9482 9.33333 44.7327 9.27145 44.5154 9.15524C44.2981 9.03904 44.1276 8.86851 44.0114 8.65123C43.8952 8.43395 43.8333 8.21842 43.8333 7.62408V3.70926C43.8333 3.11491 43.8952 2.89939 44.0114 2.6821C44.1276 2.46482 44.2981 2.29429 44.5154 2.17809C44.7327 2.06188 44.9482 2 45.5426 2Z" fill="black"/>
</g>
</g>
</svg>

